<mxfile host="Electron" agent="Mozilla/5.0 (Windows NT 10.0; Win64; x64) AppleWebKit/537.36 (KHTML, like Gecko) draw.io/28.1.2 Chrome/138.0.7204.243 Electron/37.4.0 Safari/537.36" version="28.1.2">
  <diagram name="Page-1" id="-DU0L9yxTcbPhsKKc5D3">
    <mxGraphModel dx="1042" dy="626" grid="1" gridSize="10" guides="1" tooltips="1" connect="1" arrows="1" fold="1" page="1" pageScale="1" pageWidth="827" pageHeight="1169" math="0" shadow="0">
      <root>
        <mxCell id="0" />
        <mxCell id="1" parent="0" />
        <mxCell id="ZdAonnsw_QCZDActuuFX-1" value="&lt;font style=&quot;font-size: 24px;&quot;&gt;Data Flow Diagram&lt;/font&gt;" style="text;html=1;align=center;verticalAlign=middle;whiteSpace=wrap;rounded=0;fontStyle=1" parent="1" vertex="1">
          <mxGeometry x="30" y="30" width="220" height="30" as="geometry" />
        </mxCell>
        <mxCell id="ZdAonnsw_QCZDActuuFX-2" value="" style="rounded=0;whiteSpace=wrap;html=1;strokeColor=default;fillColor=none;dashed=1;" parent="1" vertex="1">
          <mxGeometry x="40" y="160" width="120" height="420" as="geometry" />
        </mxCell>
        <mxCell id="ZdAonnsw_QCZDActuuFX-3" value="&lt;font style=&quot;font-size: 14px;&quot;&gt;Sources&lt;/font&gt;" style="rounded=1;whiteSpace=wrap;html=1;strokeColor=none;" parent="1" vertex="1">
          <mxGeometry x="55" y="140" width="90" height="30" as="geometry" />
        </mxCell>
        <mxCell id="ZdAonnsw_QCZDActuuFX-28" style="edgeStyle=orthogonalEdgeStyle;rounded=0;orthogonalLoop=1;jettySize=auto;html=1;" parent="1" source="ZdAonnsw_QCZDActuuFX-4" target="ZdAonnsw_QCZDActuuFX-16" edge="1">
          <mxGeometry relative="1" as="geometry">
            <Array as="points">
              <mxPoint x="210" y="270" />
              <mxPoint x="210" y="270" />
            </Array>
          </mxGeometry>
        </mxCell>
        <mxCell id="ZdAonnsw_QCZDActuuFX-29" style="edgeStyle=orthogonalEdgeStyle;rounded=0;orthogonalLoop=1;jettySize=auto;html=1;entryX=0;entryY=0.5;entryDx=0;entryDy=0;" parent="1" source="ZdAonnsw_QCZDActuuFX-4" target="ZdAonnsw_QCZDActuuFX-15" edge="1">
          <mxGeometry relative="1" as="geometry" />
        </mxCell>
        <mxCell id="ZdAonnsw_QCZDActuuFX-30" style="edgeStyle=orthogonalEdgeStyle;rounded=0;orthogonalLoop=1;jettySize=auto;html=1;entryX=0;entryY=0.5;entryDx=0;entryDy=0;" parent="1" source="ZdAonnsw_QCZDActuuFX-4" target="ZdAonnsw_QCZDActuuFX-17" edge="1">
          <mxGeometry relative="1" as="geometry" />
        </mxCell>
        <mxCell id="ZdAonnsw_QCZDActuuFX-4" value="" style="image;aspect=fixed;html=1;points=[];align=center;fontSize=12;image=img/lib/azure2/general/Folder_Blank.svg;" parent="1" vertex="1">
          <mxGeometry x="74.64" y="250" width="49.28" height="40" as="geometry" />
        </mxCell>
        <mxCell id="ZdAonnsw_QCZDActuuFX-5" value="CRM" style="text;html=1;align=center;verticalAlign=middle;whiteSpace=wrap;rounded=0;fontStyle=1" parent="1" vertex="1">
          <mxGeometry x="74.64000000000001" y="300" width="50" height="20" as="geometry" />
        </mxCell>
        <mxCell id="ZdAonnsw_QCZDActuuFX-11" value="" style="rounded=1;whiteSpace=wrap;html=1;strokeColor=#D79B00;fillColor=none;dashed=1;" parent="1" vertex="1">
          <mxGeometry x="210" y="190" width="190" height="390" as="geometry" />
        </mxCell>
        <mxCell id="ZdAonnsw_QCZDActuuFX-12" value="Bronze Layer" style="text;html=1;align=center;verticalAlign=middle;whiteSpace=wrap;rounded=1;fontSize=16;fillColor=#ffe6cc;strokeColor=#d79b00;fontStyle=1" parent="1" vertex="1">
          <mxGeometry x="225" y="150" width="160" height="40" as="geometry" />
        </mxCell>
        <mxCell id="ZdAonnsw_QCZDActuuFX-13" value="ERP" style="text;html=1;align=center;verticalAlign=middle;whiteSpace=wrap;rounded=0;fontStyle=1" parent="1" vertex="1">
          <mxGeometry x="74.64000000000001" y="460" width="50" height="20" as="geometry" />
        </mxCell>
        <mxCell id="ZdAonnsw_QCZDActuuFX-38" style="edgeStyle=orthogonalEdgeStyle;rounded=0;orthogonalLoop=1;jettySize=auto;html=1;entryX=0;entryY=0.5;entryDx=0;entryDy=0;" parent="1" source="ZdAonnsw_QCZDActuuFX-14" target="ZdAonnsw_QCZDActuuFX-19" edge="1">
          <mxGeometry relative="1" as="geometry" />
        </mxCell>
        <mxCell id="ZdAonnsw_QCZDActuuFX-39" style="edgeStyle=orthogonalEdgeStyle;rounded=0;orthogonalLoop=1;jettySize=auto;html=1;entryX=0;entryY=0.5;entryDx=0;entryDy=0;" parent="1" source="ZdAonnsw_QCZDActuuFX-14" target="ZdAonnsw_QCZDActuuFX-21" edge="1">
          <mxGeometry relative="1" as="geometry" />
        </mxCell>
        <mxCell id="ZdAonnsw_QCZDActuuFX-14" value="" style="image;aspect=fixed;html=1;points=[];align=center;fontSize=12;image=img/lib/azure2/general/Folder_Blank.svg;" parent="1" vertex="1">
          <mxGeometry x="75.36" y="420" width="49.28" height="40" as="geometry" />
        </mxCell>
        <mxCell id="QINcSuDI4HLvXo-ka2qv-9" style="edgeStyle=orthogonalEdgeStyle;rounded=0;orthogonalLoop=1;jettySize=auto;html=1;entryX=0;entryY=0.5;entryDx=0;entryDy=0;" parent="1" source="ZdAonnsw_QCZDActuuFX-15" target="QINcSuDI4HLvXo-ka2qv-3" edge="1">
          <mxGeometry relative="1" as="geometry" />
        </mxCell>
        <mxCell id="ZdAonnsw_QCZDActuuFX-15" value="&lt;span style=&quot;font-weight: 400;&quot;&gt;crm_cust_info&lt;/span&gt;" style="text;html=1;align=center;verticalAlign=middle;whiteSpace=wrap;rounded=1;fontSize=14;fillColor=#ffe6cc;strokeColor=#d79b00;fontStyle=1" parent="1" vertex="1">
          <mxGeometry x="230" y="220" width="160" height="30" as="geometry" />
        </mxCell>
        <mxCell id="QINcSuDI4HLvXo-ka2qv-10" style="edgeStyle=orthogonalEdgeStyle;rounded=0;orthogonalLoop=1;jettySize=auto;html=1;" parent="1" source="ZdAonnsw_QCZDActuuFX-16" target="QINcSuDI4HLvXo-ka2qv-4" edge="1">
          <mxGeometry relative="1" as="geometry" />
        </mxCell>
        <mxCell id="ZdAonnsw_QCZDActuuFX-16" value="crm_prd_info" style="text;html=1;align=center;verticalAlign=middle;whiteSpace=wrap;rounded=1;fontSize=14;fillColor=#ffe6cc;strokeColor=#d79b00;fontStyle=0" parent="1" vertex="1">
          <mxGeometry x="230" y="260" width="160" height="30" as="geometry" />
        </mxCell>
        <mxCell id="QINcSuDI4HLvXo-ka2qv-11" style="edgeStyle=orthogonalEdgeStyle;rounded=0;orthogonalLoop=1;jettySize=auto;html=1;entryX=0;entryY=0.5;entryDx=0;entryDy=0;" parent="1" source="ZdAonnsw_QCZDActuuFX-17" target="QINcSuDI4HLvXo-ka2qv-5" edge="1">
          <mxGeometry relative="1" as="geometry" />
        </mxCell>
        <mxCell id="ZdAonnsw_QCZDActuuFX-17" value="crm_sales_details" style="text;html=1;align=center;verticalAlign=middle;whiteSpace=wrap;rounded=1;fontSize=14;fillColor=#ffe6cc;strokeColor=#d79b00;fontStyle=0" parent="1" vertex="1">
          <mxGeometry x="230" y="300" width="160" height="30" as="geometry" />
        </mxCell>
        <mxCell id="QINcSuDI4HLvXo-ka2qv-13" style="edgeStyle=orthogonalEdgeStyle;rounded=0;orthogonalLoop=1;jettySize=auto;html=1;entryX=0;entryY=0.5;entryDx=0;entryDy=0;" parent="1" source="ZdAonnsw_QCZDActuuFX-19" target="QINcSuDI4HLvXo-ka2qv-6" edge="1">
          <mxGeometry relative="1" as="geometry" />
        </mxCell>
        <mxCell id="ZdAonnsw_QCZDActuuFX-19" value="erp_cust_az12" style="text;html=1;align=center;verticalAlign=middle;whiteSpace=wrap;rounded=1;fontSize=14;fillColor=#ffe6cc;strokeColor=#d79b00;fontStyle=0" parent="1" vertex="1">
          <mxGeometry x="225" y="390" width="160" height="30" as="geometry" />
        </mxCell>
        <mxCell id="QINcSuDI4HLvXo-ka2qv-14" style="edgeStyle=orthogonalEdgeStyle;rounded=0;orthogonalLoop=1;jettySize=auto;html=1;entryX=0;entryY=0.5;entryDx=0;entryDy=0;" parent="1" source="ZdAonnsw_QCZDActuuFX-20" target="QINcSuDI4HLvXo-ka2qv-7" edge="1">
          <mxGeometry relative="1" as="geometry" />
        </mxCell>
        <mxCell id="ZdAonnsw_QCZDActuuFX-20" value="erp_loc_a101" style="text;html=1;align=center;verticalAlign=middle;whiteSpace=wrap;rounded=1;fontSize=14;fillColor=#ffe6cc;strokeColor=#d79b00;fontStyle=0" parent="1" vertex="1">
          <mxGeometry x="225" y="430" width="160" height="30" as="geometry" />
        </mxCell>
        <mxCell id="QINcSuDI4HLvXo-ka2qv-15" style="edgeStyle=orthogonalEdgeStyle;rounded=0;orthogonalLoop=1;jettySize=auto;html=1;entryX=0;entryY=0.5;entryDx=0;entryDy=0;" parent="1" source="ZdAonnsw_QCZDActuuFX-21" target="QINcSuDI4HLvXo-ka2qv-8" edge="1">
          <mxGeometry relative="1" as="geometry" />
        </mxCell>
        <mxCell id="ZdAonnsw_QCZDActuuFX-21" value="erp_px_cat_g1v2" style="text;html=1;align=center;verticalAlign=middle;whiteSpace=wrap;rounded=1;fontSize=14;fillColor=#ffe6cc;strokeColor=#d79b00;fontStyle=0" parent="1" vertex="1">
          <mxGeometry x="225" y="470" width="160" height="30" as="geometry" />
        </mxCell>
        <mxCell id="ZdAonnsw_QCZDActuuFX-37" style="edgeStyle=orthogonalEdgeStyle;rounded=0;orthogonalLoop=1;jettySize=auto;html=1;entryX=0.053;entryY=0.641;entryDx=0;entryDy=0;entryPerimeter=0;" parent="1" source="ZdAonnsw_QCZDActuuFX-14" target="ZdAonnsw_QCZDActuuFX-11" edge="1">
          <mxGeometry relative="1" as="geometry" />
        </mxCell>
        <mxCell id="QINcSuDI4HLvXo-ka2qv-1" value="" style="rounded=1;whiteSpace=wrap;html=1;strokeColor=#666666;fillColor=none;dashed=1;fontColor=#333333;" parent="1" vertex="1">
          <mxGeometry x="465" y="190" width="190" height="390" as="geometry" />
        </mxCell>
        <mxCell id="QINcSuDI4HLvXo-ka2qv-2" value="Silver Layer" style="text;html=1;align=center;verticalAlign=middle;whiteSpace=wrap;rounded=1;fontSize=16;fillColor=#f5f5f5;strokeColor=#666666;fontStyle=1;fontColor=#333333;" parent="1" vertex="1">
          <mxGeometry x="475" y="150" width="160" height="40" as="geometry" />
        </mxCell>
        <mxCell id="QINcSuDI4HLvXo-ka2qv-3" value="&lt;span style=&quot;font-weight: 400;&quot;&gt;crm_cust_info&lt;/span&gt;" style="text;html=1;align=center;verticalAlign=middle;whiteSpace=wrap;rounded=1;fontSize=14;fillColor=#f5f5f5;strokeColor=#666666;fontStyle=1;fontColor=#333333;" parent="1" vertex="1">
          <mxGeometry x="480" y="220" width="160" height="30" as="geometry" />
        </mxCell>
        <mxCell id="QINcSuDI4HLvXo-ka2qv-4" value="crm_prd_info" style="text;html=1;align=center;verticalAlign=middle;whiteSpace=wrap;rounded=1;fontSize=14;fillColor=#f5f5f5;strokeColor=#666666;fontStyle=0;fontColor=#333333;" parent="1" vertex="1">
          <mxGeometry x="480" y="260" width="160" height="30" as="geometry" />
        </mxCell>
        <mxCell id="QINcSuDI4HLvXo-ka2qv-5" value="crm_sales_details" style="text;html=1;align=center;verticalAlign=middle;whiteSpace=wrap;rounded=1;fontSize=14;fillColor=#f5f5f5;strokeColor=#666666;fontStyle=0;fontColor=#333333;" parent="1" vertex="1">
          <mxGeometry x="480" y="300" width="160" height="30" as="geometry" />
        </mxCell>
        <mxCell id="QINcSuDI4HLvXo-ka2qv-6" value="erp_cust_az12" style="text;html=1;align=center;verticalAlign=middle;whiteSpace=wrap;rounded=1;fontSize=14;fillColor=#f5f5f5;strokeColor=#666666;fontStyle=0;fontColor=#333333;" parent="1" vertex="1">
          <mxGeometry x="475" y="390" width="160" height="30" as="geometry" />
        </mxCell>
        <mxCell id="QINcSuDI4HLvXo-ka2qv-7" value="erp_loc_a101" style="text;html=1;align=center;verticalAlign=middle;whiteSpace=wrap;rounded=1;fontSize=14;fillColor=#f5f5f5;strokeColor=#666666;fontStyle=0;fontColor=#333333;" parent="1" vertex="1">
          <mxGeometry x="475" y="430" width="160" height="30" as="geometry" />
        </mxCell>
        <mxCell id="QINcSuDI4HLvXo-ka2qv-8" value="erp_px_cat_g1v2" style="text;html=1;align=center;verticalAlign=middle;whiteSpace=wrap;rounded=1;fontSize=14;fillColor=#f5f5f5;strokeColor=#666666;fontStyle=0;fontColor=#333333;" parent="1" vertex="1">
          <mxGeometry x="475" y="470" width="160" height="30" as="geometry" />
        </mxCell>
        <mxCell id="zdEyF9TzuPbiAdkmZMkW-1" value="" style="rounded=1;whiteSpace=wrap;html=1;strokeColor=light-dark(#E7C505,#8D7600);fillColor=none;dashed=1;" vertex="1" parent="1">
          <mxGeometry x="715" y="190" width="190" height="390" as="geometry" />
        </mxCell>
        <mxCell id="zdEyF9TzuPbiAdkmZMkW-2" value="Gold Layer" style="text;html=1;align=center;verticalAlign=middle;whiteSpace=wrap;rounded=1;fontSize=16;fillColor=#fff2cc;strokeColor=#d6b656;fontStyle=1;" vertex="1" parent="1">
          <mxGeometry x="730" y="150" width="160" height="40" as="geometry" />
        </mxCell>
        <mxCell id="zdEyF9TzuPbiAdkmZMkW-3" value="fact_sales" style="text;html=1;align=center;verticalAlign=middle;whiteSpace=wrap;rounded=1;fontSize=14;fillColor=#fff2cc;strokeColor=#d6b656;fontStyle=0;" vertex="1" parent="1">
          <mxGeometry x="740" y="220" width="160" height="30" as="geometry" />
        </mxCell>
        <mxCell id="zdEyF9TzuPbiAdkmZMkW-4" value="dim.customers" style="text;html=1;align=center;verticalAlign=middle;whiteSpace=wrap;rounded=1;fontSize=14;fillColor=#fff2cc;strokeColor=#d6b656;fontStyle=0;" vertex="1" parent="1">
          <mxGeometry x="730" y="330" width="160" height="30" as="geometry" />
        </mxCell>
        <mxCell id="zdEyF9TzuPbiAdkmZMkW-5" value="dim.products" style="text;html=1;align=center;verticalAlign=middle;whiteSpace=wrap;rounded=1;fontSize=14;fillColor=#fff2cc;strokeColor=#d6b656;fontStyle=0;" vertex="1" parent="1">
          <mxGeometry x="730" y="460" width="160" height="30" as="geometry" />
        </mxCell>
        <mxCell id="zdEyF9TzuPbiAdkmZMkW-9" value="" style="endArrow=classic;html=1;rounded=0;entryX=0;entryY=0.25;entryDx=0;entryDy=0;jumpStyle=gap;" edge="1" parent="1" target="zdEyF9TzuPbiAdkmZMkW-4">
          <mxGeometry width="50" height="50" relative="1" as="geometry">
            <mxPoint x="640" y="240" as="sourcePoint" />
            <mxPoint x="690" y="190" as="targetPoint" />
          </mxGeometry>
        </mxCell>
        <mxCell id="zdEyF9TzuPbiAdkmZMkW-10" value="" style="endArrow=classic;html=1;rounded=0;entryX=0;entryY=0.25;entryDx=0;entryDy=0;jumpStyle=gap;" edge="1" parent="1" target="zdEyF9TzuPbiAdkmZMkW-5">
          <mxGeometry width="50" height="50" relative="1" as="geometry">
            <mxPoint x="640" y="280" as="sourcePoint" />
            <mxPoint x="690" y="230" as="targetPoint" />
          </mxGeometry>
        </mxCell>
        <mxCell id="zdEyF9TzuPbiAdkmZMkW-11" value="" style="endArrow=classic;html=1;rounded=0;entryX=0;entryY=0.75;entryDx=0;entryDy=0;jumpStyle=gap;" edge="1" parent="1" target="zdEyF9TzuPbiAdkmZMkW-4">
          <mxGeometry width="50" height="50" relative="1" as="geometry">
            <mxPoint x="635" y="405" as="sourcePoint" />
            <mxPoint x="685" y="355" as="targetPoint" />
          </mxGeometry>
        </mxCell>
        <mxCell id="zdEyF9TzuPbiAdkmZMkW-12" value="" style="endArrow=classic;html=1;rounded=0;entryX=0;entryY=1;entryDx=0;entryDy=0;jumpStyle=gap;" edge="1" parent="1" target="zdEyF9TzuPbiAdkmZMkW-4">
          <mxGeometry width="50" height="50" relative="1" as="geometry">
            <mxPoint x="635" y="445" as="sourcePoint" />
            <mxPoint x="685" y="395" as="targetPoint" />
          </mxGeometry>
        </mxCell>
        <mxCell id="zdEyF9TzuPbiAdkmZMkW-17" value="" style="endArrow=classic;html=1;rounded=0;entryX=0;entryY=0.25;entryDx=0;entryDy=0;" edge="1" parent="1" target="zdEyF9TzuPbiAdkmZMkW-3">
          <mxGeometry width="50" height="50" relative="1" as="geometry">
            <mxPoint x="640" y="320" as="sourcePoint" />
            <mxPoint x="690" y="270" as="targetPoint" />
          </mxGeometry>
        </mxCell>
        <mxCell id="zdEyF9TzuPbiAdkmZMkW-20" value="" style="endArrow=classic;html=1;rounded=0;entryX=0;entryY=0.75;entryDx=0;entryDy=0;jumpStyle=gap;" edge="1" parent="1" target="zdEyF9TzuPbiAdkmZMkW-5">
          <mxGeometry width="50" height="50" relative="1" as="geometry">
            <mxPoint x="635" y="490" as="sourcePoint" />
            <mxPoint x="685" y="440" as="targetPoint" />
          </mxGeometry>
        </mxCell>
      </root>
    </mxGraphModel>
  </diagram>
</mxfile>
